<?xml version="1.0" encoding="utf-8"?>
<!-- Generator: Adobe Illustrator 16.0.0, SVG Export Plug-In . SVG Version: 6.00 Build 0)  -->
<!DOCTYPE svg PUBLIC "-//W3C//DTD SVG 1.1//EN" "http://www.w3.org/Graphics/SVG/1.1/DTD/svg11.dtd">
<svg version="1.1" id="Layer_1" xmlns="http://www.w3.org/2000/svg" xmlns:xlink="http://www.w3.org/1999/xlink" x="0px" y="0px"
	 width="841.889px" height="595.281px" viewBox="0 0 841.889 595.281" enable-background="new 0 0 841.889 595.281"
	 xml:space="preserve">
<g>
	<g>
		<path fill="#2E2E2E" d="M710.364,376.279c-8.086-8.084-20.271-10.458-30.798-5.999c-31.301,13.258-64.493,19.979-98.661,19.979
			c-67.472,0-130.898-26.272-178.604-73.979c-73.154-73.152-94.349-181.985-53.996-277.264c4.459-10.53,2.085-22.711-6.002-30.795
			c-8.083-8.088-20.27-10.455-30.795-5.996c-36.618,15.514-69.513,37.708-97.771,65.969c-58.321,58.32-90.437,135.859-90.43,218.335
			c0.007,82.464,32.124,159.993,90.438,218.31c58.322,58.322,135.865,90.442,218.342,90.442c82.462,0,159.992-32.115,218.309-90.431
			c28.262-28.262,50.455-61.156,65.969-97.771C720.821,396.55,718.448,384.366,710.364,376.279z"/>
	</g>
</g>
</svg>
