<?xml version="1.0" encoding="utf-8"?>
<!-- Generator: Adobe Illustrator 16.0.0, SVG Export Plug-In . SVG Version: 6.00 Build 0)  -->
<!DOCTYPE svg PUBLIC "-//W3C//DTD SVG 1.1//EN" "http://www.w3.org/Graphics/SVG/1.1/DTD/svg11.dtd">
<svg version="1.1" id="Layer_1" xmlns="http://www.w3.org/2000/svg" xmlns:xlink="http://www.w3.org/1999/xlink" x="0px" y="0px"
	 width="425.199px" height="425.199px" viewBox="0 0 425.199 425.199" enable-background="new 0 0 425.199 425.199"
	 xml:space="preserve">
<g id="Layer_1_1_">
	<g>
		<g>
			<g>
				<g>
					<path fill="#357FC6" d="M205.359,213.058l-94.033,65.844c-36.364-51.934-23.743-123.514,28.19-159.878
						c19.942-13.964,41.499-20.761,65.843-20.761V213.058z"/>
				</g>
			</g>
			<g>
				<g>
					<path fill="#24629F" d="M205.359,213.058v114.796c-38.989,0-71.669-17.014-94.033-48.952L205.359,213.058z"/>
				</g>
			</g>
			<g>
				<g>
					<path fill="#4E1212" d="M205.359,213.058V98.262c63.4,0,114.796,51.396,114.796,114.795
						c0,63.399-51.395,114.797-114.796,114.797l0,0V213.058z"/>
				</g>
			</g>
		</g>
	</g>
	<circle fill="#FFFFFF" cx="206.359" cy="213.058" r="72.641"/>
	<g>
		<g>
			<g>
				<g>
					<path fill="#357FC6" d="M651.359,213.058l-94.033,65.844c-36.364-51.934-23.744-123.514,28.19-159.878
						c19.942-13.964,41.499-20.761,65.843-20.761V213.058z"/>
				</g>
			</g>
			<g>
				<g>
					<path fill="#24629F" d="M651.359,213.058v114.796c-38.99,0-71.67-17.014-94.033-48.952L651.359,213.058z"/>
				</g>
			</g>
			<g>
				<g>
					<path fill="#4E1212" d="M651.359,213.058V98.262c63.4,0,114.796,51.396,114.796,114.795
						c0,63.399-51.395,114.797-114.796,114.797l0,0V213.058z"/>
				</g>
			</g>
		</g>
	</g>
	<circle fill="#FFFFFF" cx="652.359" cy="213.058" r="72.641"/>
</g>
<g id="Layer_3">
	<rect x="336.999" y="147" fill="none" width="115" height="81"/>
	<text transform="matrix(1 0 0 1 337.0002 157.6497)" font-family="'MyriadPro-Regular'" font-size="15">Sleep</text>
	<text transform="matrix(1 0 0 1 337.0002 179.6497)" font-family="'MyriadPro-Regular'" font-size="15">50%</text>
	<rect x="61" y="119" fill="none" width="115" height="81"/>
	<text transform="matrix(1 0 0 1 60.9998 129.6497)" font-family="'MyriadPro-Regular'" font-size="15">Lesssons</text>
	<text transform="matrix(1 0 0 1 60.9998 151.6497)" font-family="'MyriadPro-Regular'" font-size="15">34.6%</text>
	<g>
		<rect x="79" y="292" fill="none" width="115" height="81"/>
		<text transform="matrix(1 0 0 1 78.9998 302.6506)" font-family="'MyriadPro-Regular'" font-size="15">Work</text>
		<text transform="matrix(1 0 0 1 78.9998 324.6506)" font-family="'MyriadPro-Regular'" font-size="15">15.4%</text>
	</g>
	<g>
		<g>
			<line fill="none" stroke="#4E1212" stroke-miterlimit="10" x1="302" y1="164" x2="383.428" y2="164"/>
			<g>
				<circle fill="#4E1212" cx="383.24" cy="164" r="3.76"/>
			</g>
		</g>
	</g>
	<g>
		<g>
			<line fill="none" stroke="#24629F" stroke-miterlimit="10" x1="150" y1="309" x2="68.572" y2="309"/>
			<g>
				<circle fill="#24629F" cx="68.76" cy="309" r="3.76"/>
			</g>
		</g>
	</g>
	<g>
		<g>
			<line fill="none" stroke="#357FC6" stroke-miterlimit="10" x1="131" y1="136" x2="49.572" y2="136"/>
			<g>
				<circle fill="#357FC6" cx="49.76" cy="136" r="3.76"/>
			</g>
		</g>
	</g>
	<rect x="782.999" y="147" fill="none" width="115" height="81"/>
	<text transform="matrix(1 0 0 1 783.0002 157.6497)" font-family="'MyriadPro-Regular'" font-size="15">Sleep</text>
	<text transform="matrix(1 0 0 1 783.0002 179.6497)" font-family="'MyriadPro-Regular'" font-size="15">50%</text>
	<rect x="506.999" y="119" fill="none" width="115" height="81"/>
	<text transform="matrix(1 0 0 1 507.0002 129.6497)" font-family="'MyriadPro-Regular'" font-size="15">Lesssons</text>
	<text transform="matrix(1 0 0 1 507.0002 151.6497)" font-family="'MyriadPro-Regular'" font-size="15">34.6%</text>
	<g>
		<rect x="524.999" y="292" fill="none" width="115" height="81"/>
		<text transform="matrix(1 0 0 1 525.0002 302.6506)" font-family="'MyriadPro-Regular'" font-size="15">Work</text>
		<text transform="matrix(1 0 0 1 525.0002 324.6506)" font-family="'MyriadPro-Regular'" font-size="15">15.4%</text>
	</g>
	<g>
		<g>
			<line fill="none" stroke="#4E1212" stroke-miterlimit="10" x1="747.999" y1="164" x2="829.428" y2="164"/>
			<g>
				<circle fill="#4E1212" cx="829.24" cy="164" r="3.76"/>
			</g>
		</g>
	</g>
	<g>
		<g>
			<line fill="none" stroke="#24629F" stroke-miterlimit="10" x1="595.999" y1="309" x2="514.572" y2="309"/>
			<g>
				<circle fill="#24629F" cx="514.76" cy="309" r="3.76"/>
			</g>
		</g>
	</g>
	<g>
		<g>
			<line fill="none" stroke="#357FC6" stroke-miterlimit="10" x1="576.999" y1="136" x2="495.572" y2="136"/>
			<g>
				<circle fill="#357FC6" cx="495.76" cy="136" r="3.76"/>
			</g>
		</g>
	</g>
</g>
<g id="Layer_2">
	<circle fill="none" stroke="#4E1212" stroke-miterlimit="10" cx="207.157" cy="230.472" r="18.26"/>
	<circle fill="#4E1212" cx="195.846" cy="195.188" r="3.22"/>
	<circle fill="#4E1212" cx="217.222" cy="195.187" r="3.217"/>
	<circle fill="none" stroke="#4E1212" stroke-miterlimit="10" cx="653.156" cy="241.472" r="18.26"/>
	<rect x="174.318" y="226.729" fill="#FFFFFF" width="63.384" height="24.058"/>
	<circle fill="#4E1212" cx="641.846" cy="206.188" r="3.22"/>
	<circle fill="#4E1212" cx="663.222" cy="206.187" r="3.217"/>
</g>
</svg>
