<?xml version="1.0" encoding="utf-8"?>
<!-- Generator: Adobe Illustrator 16.0.0, SVG Export Plug-In . SVG Version: 6.00 Build 0)  -->
<!DOCTYPE svg PUBLIC "-//W3C//DTD SVG 1.1//EN" "http://www.w3.org/Graphics/SVG/1.1/DTD/svg11.dtd">
<svg version="1.1" id="Layer_1" xmlns="http://www.w3.org/2000/svg" xmlns:xlink="http://www.w3.org/1999/xlink" x="0px" y="0px"
	 width="841.889px" height="595.281px" viewBox="0 0 841.889 595.281" enable-background="new 0 0 841.889 595.281"
	 xml:space="preserve">
<g>
	<path fill="#2E2E2E" d="M420.945,211.946c14.392,0,26.166-11.774,26.166-26.166v-52.986c0-14.392-11.774-26.167-26.166-26.167
		s-26.166,11.775-26.166,26.167v52.986C394.779,200.825,406.553,211.946,420.945,211.946z"/>
	<path fill="#2E2E2E" d="M574.671,274.745c6.541,0,13.083-2.617,18.316-7.85l37.94-37.941c10.467-10.467,10.467-26.82,0-37.287
		c-10.467-10.466-26.82-10.466-37.287,0l-37.94,37.941c-10.467,10.467-10.467,26.82,0,37.287
		C561.588,272.128,568.129,274.745,574.671,274.745z"/>
	<path fill="#2E2E2E" d="M248.903,266.895c4.579,5.232,11.774,7.85,18.316,7.85c6.541,0,13.083-2.617,18.315-7.85
		c10.467-10.467,10.467-26.82,0-37.287l-37.94-37.941c-10.467-10.466-26.82-10.466-37.287,0c-10.466,10.467-10.466,26.82,0,37.287
		L248.903,266.895z"/>
	<path fill="#2E2E2E" d="M691.764,436.321H150.125c-14.392,0-26.166,11.774-26.166,26.166s11.774,26.166,26.166,26.166h541.639
		c14.392,0,26.167-11.774,26.167-26.166S706.156,436.321,691.764,436.321z"/>
	<path fill="#2E2E2E" d="M300.58,397.726c13.737,3.925,28.129-4.579,32.054-18.971c10.467-40.558,47.099-68.687,88.965-68.687
		c41.865,0,78.498,28.129,88.965,68.687c3.271,11.774,13.737,19.624,25.512,19.624c1.963,0,4.579,0,6.542-0.653
		c13.737-3.925,22.241-17.662,18.971-32.054c-16.354-63.453-73.92-107.936-139.335-107.936s-122.981,44.482-139.335,107.936
		C277.685,380.064,286.189,394.455,300.58,397.726z"/>
</g>
</svg>
